Coordinates
version=1
nRows=16
nColumns=22
inDegrees=yes

Units are S.I. units (second, meters, Newtons, ...)
If the header above contains a line with 'inDegrees', this indicates whether rotational values are in degrees (yes) or radians (no).

endheader
time	pelvis_tilt	pelvis_list	pelvis_rotation	pelvis_tx	pelvis_ty	pelvis_tz	hip_flexion_r	hip_adduction_r	hip_rotation_r	knee_angle_r	ankle_angle_r	subtalar_angle_r	hip_flexion_l	hip_adduction_l	hip_rotation_l	knee_angle_l	ankle_angle_l	subtalar_angle_l	lumbar_extension	lumbar_bending	lumbar_rotation
      1.20000000	      0.16663511	     -4.71906596	     -2.59768640	     -1.21364654	      0.92093793	      0.07922071	     -2.75495787	      8.41595092	      0.06780571	    -14.21559108	     12.29524443	     -1.96600676	     21.05802675	     -9.47860387	     -0.43563990	    -54.06649293	      7.83982232	     -1.37609510	     -7.46294294	     -0.34466654	      4.79840300
      1.21000000	      0.11966437	     -4.28709867	     -2.75372715	     -1.21041051	      0.92123837	      0.07983694	     -3.05368014	      7.94464994	      0.16616887	    -13.95518036	     12.35370160	     -1.90995356	     21.95596506	     -8.86159349	     -0.78231344	    -54.52954978	      7.40335136	     -0.88156453	     -7.46994891	     -0.85582869	      5.10203634
      1.22000000	      0.07188639	     -3.84570285	     -2.93907788	     -1.20708434	      0.92154513	      0.08043850	     -3.36006718	      7.46080642	      0.30410593	    -13.68303935	     12.39689529	     -1.87450813	     22.77768984	     -8.27339165	     -1.24057212	    -54.66308181	      7.02410118	     -0.38873216	     -7.49279555	     -1.37320932	      5.39083209
      1.23000000	      0.03343961	     -3.40328790	     -3.15283122	     -1.20368373	      0.92184130	      0.08102570	     -3.67710044	      6.97336082	      0.47200859	    -13.41166350	     12.44454686	     -1.85158780	     23.51520287	     -7.73163717	     -1.81052295	    -54.48013260	      6.68417740	      0.09056392	     -7.54657747	     -1.88596547	      5.67683835
      1.24000000	      0.01058692	     -2.97248794	     -3.38996590	     -1.20021515	      0.92212142	      0.08161934	     -4.01080629	      6.49820654	      0.67788722	    -13.14153698	     12.49052952	     -1.84181003	     24.16339026	     -7.24872273	     -2.46705611	    -53.99570920	      6.37024949	      0.51972509	     -7.64278135	     -2.38720041	      5.94772473
      1.25000000	      0.00667364	     -2.55861552	     -3.64441840	     -1.19668717	      0.92235963	      0.08221626	     -4.35960788	      6.04089405	      0.91521964	    -12.88285283	     12.53568959	     -1.85037178	     24.72975496	     -6.83179907	     -3.20028236	    -53.24386738	      6.07523393	      0.86851454	     -7.78412441	     -2.86903530	      6.20041284
      1.26000000	      0.04102987	     -2.16720920	     -3.91169819	     -1.19305343	      0.92259001	      0.08281457	     -4.75384506	      5.60591050	      1.19761357	    -12.62478173	     12.60240171	     -1.88800009	     25.17337035	     -6.47188505	     -3.97842225	    -52.21315754	      5.81825623	      1.16224915	     -7.98675484	     -3.32564344	      6.41803313
      1.27000000	      0.07365325	     -1.80479012	     -4.18633434	     -1.18932784	      0.92272070	      0.08337761	     -5.12612268	      5.19862593	      1.48129992	    -12.41525808	     12.65183177	     -1.95990387	     25.56493615	     -6.17817985	     -4.80837013	    -50.96943264	      5.56015647	      1.31465906	     -8.20084217	     -3.74279814	      6.61098776
      1.28000000	      0.08964286	     -1.46761025	     -4.46868890	     -1.18551641	      0.92272221	      0.08393859	     -5.45658513	      4.81948462	      1.79073167	    -12.26248822	     12.74788725	     -2.05305065	     25.91545542	     -5.93914315	     -5.66471003	    -49.52208833	      5.31705712	      1.35864552	     -8.40839807	     -4.13098812	      6.77917031
      1.29000000	      0.09653498	     -1.15997515	     -4.75385103	     -1.18157203	      0.92260064	      0.08445742	     -5.75425739	      4.46873544	      2.08241315	    -12.17194420	     12.86761890	     -2.16202126	     26.21592788	     -5.74791547	     -6.54229004	    -47.89620721	      5.07995099	      1.33248475	     -8.60847488	     -4.47850030	      6.92619116
      1.30000000	      0.10351945	     -0.88120499	     -5.02408770	     -1.17746005	      0.92236925	      0.08488713	     -6.04583535	      4.14332475	      2.36961642	    -12.11690111	     13.01683402	     -2.28321717	     26.45353642	     -5.58175921	     -7.41214925	    -46.10482491	      4.88007140	      1.25086157	     -8.80607098	     -4.78154492	      7.02429567
      1.31000000	      0.11257544	     -0.62643369	     -5.28301189	     -1.17316828	      0.92203827	      0.08525551	     -6.33579410	      3.83862443	      2.64929525	    -12.09443771	     13.19480641	     -2.40992106	     26.62350648	     -5.43075936	     -8.27123895	    -44.16342654	      4.71123319	      1.12462396	     -9.00055428	     -5.05489939	      7.08762229
      1.32000000	      0.10207689	     -0.40264284	     -5.52816010	     -1.16868911	      0.92157516	      0.08553714	     -6.59961516	      3.56136448	      2.90480525	    -12.10892775	     13.39083828	     -2.52125771	     26.75691438	     -5.29629325	     -9.11541079	    -42.10427931	      4.55884327	      0.98857438	     -9.16085596	     -5.28049802	      7.12160016
      1.33000000	      0.08034722	     -0.20613292	     -5.76324699	     -1.16400910	      0.92099662	      0.08574659	     -6.85520871	      3.30560169	      3.13794815	    -12.14468593	     13.60650194	     -2.61597651	     26.84627761	     -5.17408350	     -9.95723035	    -39.95023301	      4.41657859	      0.86327637	     -9.29297914	     -5.46901623	      7.13035994
      1.34000000	      0.08331284	     -0.03883419	     -5.97808820	     -1.15910210	      0.92036510	      0.08585524	     -7.16854058	      3.06828271	      3.35662357	    -12.15170096	     13.81424689	     -2.70490844	     26.85354363	     -5.04943221	    -10.78236354	    -37.72116524	      4.30018363	      0.74807776	     -9.43539855	     -5.61617289	      7.09978987
      1.35000000	     -0.00854609	      0.09954160	     -6.20497380	     -1.15409018	      0.91948759	      0.08593128	     -7.34023476	      2.86392872	      3.56038914	    -12.25739252	     14.06216000	     -2.74761443	     26.93872320	     -4.95770547	    -11.62169242	    -35.48472871	      4.11919905	      0.72329513	     -9.45534007	     -5.71802684	      7.06502358
